<svg width="640" height="640" viewBox="0 0 120 120" fill="none" xmlns="http://www.w3.org/2000/svg">
  <circle cx="60" cy="60" r="59" fill="url(#seal-surface)" stroke="#D7E7FF" stroke-width="2"/>
  <circle cx="60" cy="60" r="43" fill="url(#seal-core)" stroke="white" stroke-opacity="0.28" stroke-width="2"/>
  <g filter="url(#shadow)">
    <rect x="36" y="36" width="48" height="48" rx="14" fill="url(#mark-gradient)"/>
    <path d="M60 51.5C57 48.6 52.8 47 48 47C43.2 47 39.5 50.7 39.5 55.4V69.2C39.5 70.4 40.5 71.4 41.7 71.4H53.6C55.2 71.4 56.6 72 57.7 73.1" stroke="white" stroke-width="3" stroke-linecap="round" stroke-linejoin="round"/>
    <path d="M60 51.5C63 48.6 67.2 47 72 47C76.8 47 80.5 50.7 80.5 55.4V69.2C80.5 70.4 79.5 71.4 78.3 71.4H66.4C64.8 71.4 63.4 72 62.3 73.1" stroke="white" stroke-width="3" stroke-linecap="round" stroke-linejoin="round"/>
    <path d="M60 52V73" stroke="white" stroke-width="3" stroke-linecap="round"/>
  </g>
  <defs>
    <linearGradient id="seal-surface" x1="20" y1="12" x2="102" y2="113" gradientUnits="userSpaceOnUse">
      <stop stop-color="#EFF6FF"/>
      <stop offset="0.54" stop-color="#D9E8FF"/>
      <stop offset="1" stop-color="#EDF4FF"/>
    </linearGradient>
    <radialGradient id="seal-core" cx="0" cy="0" r="1" gradientUnits="userSpaceOnUse" gradientTransform="translate(48 40) rotate(45) scale(40)">
      <stop stop-color="#6EA0FF" stop-opacity="0.2"/>
      <stop offset="0.68" stop-color="#255CFF" stop-opacity="0.03"/>
      <stop offset="1" stop-color="#255CFF" stop-opacity="0"/>
    </radialGradient>
    <linearGradient id="mark-gradient" x1="42" y1="40" x2="80" y2="84" gradientUnits="userSpaceOnUse">
      <stop stop-color="#2F68FF"/>
      <stop offset="0.56" stop-color="#255CFF"/>
      <stop offset="1" stop-color="#173CBD"/>
    </linearGradient>
    <filter id="shadow" x="26" y="26" width="68" height="68" filterUnits="userSpaceOnUse" color-interpolation-filters="sRGB">
      <feFlood flood-opacity="0" result="BackgroundImageFix"/>
      <feColorMatrix in="SourceAlpha" type="matrix" values="0 0 0 0 0 0 0 0 0 0 0 0 0 0 0 0 0 0 127 0" result="hardAlpha"/>
      <feOffset dy="6"/>
      <feGaussianBlur stdDeviation="5"/>
      <feColorMatrix type="matrix" values="0 0 0 0 0.145098 0 0 0 0 0.360784 0 0 0 0 1 0 0 0 0.25 0"/>
      <feBlend mode="normal" in2="BackgroundImageFix" result="effect1_dropShadow_0_1"/>
      <feBlend mode="normal" in="SourceGraphic" in2="effect1_dropShadow_0_1" result="shape"/>
    </filter>
  </defs>
</svg>
