<svg viewBox="0 0 256 256" xmlns="http://www.w3.org/2000/svg">
  <defs>
    <linearGradient id="grad256" x1="0%" y1="0%" x2="100%" y2="100%">
      <stop offset="0%" style="stop-color:#e040a8;stop-opacity:1" />
      <stop offset="50%" style="stop-color:#c026d3;stop-opacity:1" />
      <stop offset="100%" style="stop-color:#7a1e6e;stop-opacity:1" />
    </linearGradient>
  </defs>

  <rect x="8" y="8" width="240" height="240" rx="60" ry="60" fill="url(#grad256)"/>
  <ellipse cx="64" cy="48" rx="40" ry="30" fill="white" opacity="0.2"/>

  <g transform="translate(128, 128)">
    <path d="M-48 -36 Q-36 -48 -24 -36 L-24 48 Q-36 60 -48 48 Z" stroke="white" stroke-width="5" fill="none" stroke-linecap="round" stroke-linejoin="round"/>
    <line x1="0" y1="-48" x2="0" y2="60" stroke="white" stroke-width="5" stroke-linecap="round"/>
    <path d="M48 -36 Q36 -48 24 -36 L24 48 Q36 60 48 48 Z" stroke="white" stroke-width="5" fill="none" stroke-linecap="round" stroke-linejoin="round"/>

    <line x1="-36" y1="-12" x2="-24" y2="-12" stroke="white" stroke-width="3" stroke-linecap="round" opacity="0.6"/>
    <line x1="-36" y1="4" x2="-24" y2="4" stroke="white" stroke-width="3" stroke-linecap="round" opacity="0.6"/>
    <line x1="-36" y1="20" x2="-24" y2="20" stroke="white" stroke-width="3" stroke-linecap="round" opacity="0.6"/>

    <line x1="24" y1="-12" x2="36" y2="-12" stroke="white" stroke-width="3" stroke-linecap="round" opacity="0.6"/>
    <line x1="24" y1="4" x2="36" y2="4" stroke="white" stroke-width="3" stroke-linecap="round" opacity="0.6"/>
    <line x1="24" y1="20" x2="36" y2="20" stroke="white" stroke-width="3" stroke-linecap="round" opacity="0.6"/>
  </g>
</svg>
